HIERARCHY
ROOT root
{
	OFFSET 0.000000 0.000000 0.000000
	CHANNELS 6 Xposition Yposition Zposition Zrotation Yrotation Xrotation
	JOINT lhip
	{
		OFFSET 0.058581 -0.082280 -0.017664
		CHANNELS 3 Zrotation Yrotation Xrotation
		JOINT lknee
		{
			OFFSET 0.043451 -0.386469 0.008037
			CHANNELS 3 Zrotation Yrotation Xrotation
			JOINT lankle
			{
				OFFSET -0.014790 -0.426874 -0.037428
				CHANNELS 3 Zrotation Yrotation Xrotation
				JOINT ltoe
				{
					OFFSET 0.041054 -0.060286 0.122042
					CHANNELS 3 Zrotation Yrotation Xrotation
					End Site
					{
						OFFSET 0.000000 0.000000 0.000000
					}
				}
			}
		}
	}
	JOINT rhip
	{
		OFFSET -0.060310 -0.090513 -0.013543
		CHANNELS 3 Zrotation Yrotation Xrotation
		JOINT rknee
		{
			OFFSET -0.043257 -0.383688 -0.004843
			CHANNELS 3 Zrotation Yrotation Xrotation
			JOINT rankle
			{
				OFFSET 0.019056 -0.420046 -0.034562
				CHANNELS 3 Zrotation Yrotation Xrotation
				JOINT rtoe
				{
					OFFSET -0.034840 -0.062106 0.130323
					CHANNELS 3 Zrotation Yrotation Xrotation
					End Site
					{
						OFFSET 0.000000 0.000000 0.000000
					}
				}
			}
		}
	}
	JOINT lowerback
	{
		OFFSET 0.004439 0.124404 -0.038385
		CHANNELS 3 Zrotation Yrotation Xrotation
		JOINT upperback
		{
			OFFSET 0.004488 0.137956 0.026820
			CHANNELS 3 Zrotation Yrotation Xrotation
			JOINT chest
			{
				OFFSET -0.002265 0.056032 0.002855
				CHANNELS 3 Zrotation Yrotation Xrotation
				JOINT lowerneck
				{
					OFFSET -0.013390 0.211636 -0.033468
					CHANNELS 3 Zrotation Yrotation Xrotation
					JOINT upperneck
					{
						OFFSET 0.010113 0.088937 0.050410
						CHANNELS 3 Zrotation Yrotation Xrotation
						End Site
						{
							OFFSET 0.000000 0.000000 0.000000
						}
					}
				}
				JOINT lclavicle
				{
					OFFSET 0.071702 0.114000 -0.018898
					CHANNELS 3 Zrotation Yrotation Xrotation
					JOINT lshoulder
					{
						OFFSET 0.122921 0.045205 -0.019046
						CHANNELS 3 Zrotation Yrotation Xrotation
						JOINT lelbow
						{
							OFFSET 0.255332 -0.015649 -0.022946
							CHANNELS 3 Zrotation Yrotation Xrotation
							JOINT lwrist
							{
								OFFSET 0.265709 0.012698 -0.007375
								CHANNELS 3 Zrotation Yrotation Xrotation
								End Site
								{
									OFFSET 0.000000 0.000000 0.000000
								}
							}
						}
					}
				}
				JOINT rclavicle
				{
					OFFSET -0.082954 0.112472 -0.023707
					CHANNELS 3 Zrotation Yrotation Xrotation
					JOINT rshoulder
					{
						OFFSET -0.113228 0.046853 -0.008472
						CHANNELS 3 Zrotation Yrotation Xrotation
						JOINT relbow
						{
							OFFSET -0.260127 -0.014369 -0.031269
							CHANNELS 3 Zrotation Yrotation Xrotation
							JOINT rwrist
							{
								OFFSET -0.269108 0.006794 -0.006027
								CHANNELS 3 Zrotation Yrotation Xrotation
								End Site
								{
									OFFSET 0.000000 0.000000 0.000000
								}
							}
						}
					}
				}
			}
		}
	}
}
MOTION
Frames: 8
Frame Time: 0.033333
-0.185971 0.183860 0.911055 128.502323 -26.052401 142.278078 14.176858 -20.165611 -63.898688 -9.452280 -8.489225 11.551673 -9.594103 1.041915 0.389567 0.000000 -0.000000 0.000000 -26.238779 -23.388292 -83.759151 2.222967 -22.963790 43.443619 9.682622 -12.364204 -9.639419 0.000000 -0.000000 0.000000 22.753575 -9.360245 37.076467 -0.456889 7.509881 1.313249 1.110678 2.540852 9.695837 2.187893 -20.814019 -6.612849 8.009192 -8.371026 -13.107263 -17.326502 -11.393481 2.305509 -61.485497 -6.605212 30.377174 -18.514689 -76.445206 44.197169 51.465142 -20.130795 -16.505046 -2.263394 26.298954 0.697176 -23.573843 14.487383 -37.899226 -1.289122 10.054690 -28.248196 -33.818399 19.933501 15.608600 
-0.186373 0.184619 0.911484 128.268186 -26.068947 142.531153 14.255645 -20.122631 -63.976618 -9.414005 -8.426329 11.240470 -10.024048 0.834821 0.703573 0.000000 -0.000000 0.000000 -26.240783 -23.399343 -83.894884 2.084822 -23.014162 43.349779 9.725060 -12.323503 -9.539016 0.000000 -0.000000 0.000000 22.770328 -9.233266 36.784831 -0.390780 7.571079 1.316076 1.172202 2.533847 9.727986 2.230715 -20.804370 -6.801103 7.905422 -8.537488 -13.157369 -17.225962 -11.551746 2.455040 -61.662197 -6.785093 30.398778 -18.081403 -76.278850 43.783502 51.398447 -20.324997 -16.788272 -2.296368 26.307018 0.918265 -23.827865 14.310183 -37.946190 -1.114559 10.093896 -27.731117 -33.429408 19.832581 15.520689 
-0.187065 0.185446 0.911967 128.036076 -26.077321 142.643047 14.191223 -20.072360 -63.971297 -9.462149 -8.662162 11.100538 -10.231216 0.784254 0.963483 0.000000 -0.000000 0.000000 -26.206235 -23.341542 -83.918270 1.953488 -22.980576 43.106266 9.818728 -12.327791 -9.418054 0.000000 -0.000000 0.000000 22.809477 -9.225304 36.645140 -0.421317 7.605765 1.303899 1.174146 2.523891 9.747140 2.216769 -20.858386 -6.910693 7.867730 -8.403600 -13.185669 -17.097252 -11.729759 2.457200 -61.766973 -6.756995 30.494630 -17.347967 -76.181223 43.155905 51.341323 -20.230012 -16.676306 -2.463473 26.426843 0.731956 -23.991888 14.350178 -37.911602 -0.957009 9.768846 -27.289034 -32.491871 19.858444 16.225434 
-0.187529 0.186429 0.912322 127.818225 -26.147157 142.650859 14.073346 -20.066761 -63.863570 -9.608473 -8.714680 11.015075 -10.205187 0.774993 1.049364 0.000000 -0.000000 0.000000 -26.231913 -23.324702 -83.841860 2.007878 -22.684144 43.009840 9.737390 -12.307612 -9.579187 0.000000 -0.000000 0.000000 22.877967 -9.255169 36.568232 -0.468999 7.589487 1.286717 1.143156 2.472848 9.788177 2.241596 -21.013113 -7.046589 7.937016 -8.331228 -13.320308 -17.212440 -11.965566 2.573448 -61.543917 -6.775665 30.419699 -17.263530 -76.164198 42.949642 51.183089 -20.246960 -16.499971 -2.701567 26.556319 0.618571 -23.933020 14.339167 -37.722141 -0.963291 9.652452 -26.679024 -32.120335 19.931009 16.793613 
-0.188032 0.187134 0.912767 127.547245 -26.134411 142.515447 13.898346 -20.143614 -63.591273 -9.608019 -8.790884 10.989383 -10.061650 0.783783 0.964214 0.000000 -0.000000 0.000000 -26.245715 -23.215946 -83.680730 2.093614 -22.452551 42.831573 9.817658 -12.245874 -9.502802 0.000000 -0.000000 0.000000 22.856490 -9.296761 36.884569 -0.548574 7.665155 1.108960 1.138014 2.531447 9.770333 2.280082 -21.203718 -7.259685 8.029843 -8.293730 -13.253219 -17.133003 -12.143101 2.579503 -61.550807 -6.775486 30.462918 -17.019788 -76.084030 42.621050 51.255818 -20.702963 -16.646254 -3.007188 26.678603 0.403934 -23.992958 14.088661 -37.699548 -0.681635 9.451610 -26.450587 -31.072700 19.833205 17.467720 
-0.189155 0.187508 0.912829 127.295834 -25.994540 142.545212 14.014654 -20.151391 -63.743241 -9.642096 -8.713878 11.284712 -10.090443 0.918045 0.715092 0.000000 -0.000000 0.000000 -26.355524 -23.065561 -83.614890 2.397794 -22.273004 42.475672 9.931990 -12.387805 -9.483152 0.000000 -0.000000 0.000000 22.815817 -9.089269 36.695582 -0.440221 7.875427 1.365736 1.186441 2.485702 9.795743 2.489881 -21.106779 -7.636851 7.812769 -8.464306 -13.111980 -17.251580 -12.153963 2.598800 -61.493646 -7.057071 30.771862 -16.286625 -76.092323 42.053109 51.334956 -20.761933 -16.542066 -2.866213 26.602080 0.539394 -24.927617 14.009499 -37.948368 0.076906 8.813285 -26.447893 -31.182510 19.513363 17.231005 
-0.190208 0.187790 0.912848 127.075541 -25.824178 142.481221 14.040948 -20.224172 -63.789175 -9.577109 -8.757626 11.666159 -9.908595 1.077251 0.393082 0.000000 -0.000000 0.000000 -26.386188 -22.943937 -83.562416 2.601869 -22.245172 42.379968 9.999655 -12.279854 -9.507317 0.000000 -0.000000 0.000000 22.849653 -8.993221 36.705454 -0.454917 8.057567 1.469317 1.212935 2.439677 9.764777 2.713322 -21.134767 -7.940698 7.653191 -8.368721 -12.965415 -17.263924 -12.370930 2.741384 -61.502277 -7.061232 30.795715 -15.516988 -76.207988 41.325149 51.368608 -20.834906 -16.503908 -3.087570 26.733292 0.365410 -25.126284 13.923412 -38.109606 0.398920 8.388661 -26.626603 -30.819436 19.350606 17.247637 
-0.191458 0.188402 0.912847 126.918063 -25.760094 142.445807 13.978008 -20.301363 -63.867954 -9.644347 -8.876030 11.960815 -9.489433 1.052601 0.173482 0.000000 -0.000000 0.000000 -26.397583 -23.075915 -83.472792 2.697795 -22.443618 42.307951 10.120431 -11.818875 -9.338532 0.000000 -0.000000 0.000000 22.925852 -8.995995 36.798628 -0.536619 8.104178 1.251173 1.192315 2.484567 9.834307 2.636351 -21.200728 -7.654439 7.894364 -8.325581 -13.394616 -17.247846 -12.468260 2.728045 -61.542907 -6.988203 30.832212 -15.447865 -76.259708 41.349513 51.223966 -20.525164 -16.366755 -3.231528 26.826432 0.078935 -25.097483 13.938288 -38.277393 0.378372 8.279504 -26.664707 -30.569069 18.967535 16.789367 
